#!OML:ASF F:\VICON\USERDATA\INSTALL\Justin_Nancy\Justin_Nancy.ASF
:FULLY-SPECIFIED
:DEGREES
174
root 13.5958 17.6652 -2.98647 0.783825 -4.36933 1.75867
lowerback 7.30322 0.758099 -2.00251
upperback 0.191304 0.89279 1.27853
thorax -3.95058 0.491794 2.35587
lowerneck -16.8166 -4.26871 -9.79135
upperneck 24.1404 -5.25343 7.42629
head 11.0524 -2.4087 3.58803
rclavicle 1.78906e-015 1.19271e-015
rhumerus -28.1733 -14.1463 -80.6265
rradius 30.7999
rwrist 7.54653
rhand -12.136 11.1102
rfingers 7.12502
rthumb 13.926 -18.4035
lclavicle 1.78906e-015 1.19271e-015
lhumerus -32.3024 16.1309 81.4125
lradius 21.6854
lwrist -13.499
lhand -13.5193 28.83
lfingers 7.12502
lthumb 12.5925 58.4304
rfemur -9.61051 -1.46962 21.8903
rtibia 56.2129
rfoot -2.32268 0.0767419
rtoes -2.81809
lfemur -18.5911 0.843292 -21.2625
ltibia 21.6185
lfoot -2.20684 -1.30748
ltoes 0.820342
175
root 13.5958 17.6743 -2.88522 0.747487 -4.52742 2.12364
lowerback 7.43162 0.729068 -2.45822
upperback 0.26333 0.81063 1.21479
thorax -3.94891 0.458045 2.55483
lowerneck -17.4149 -4.28747 -9.7485
upperneck 24.3929 -5.22927 7.35894
head 11.259 -2.39133 3.56012
rclavicle -4.27387e-015 -3.97569e-015
rhumerus -27.9911 -14.3003 -80.6277
rradius 30.2966
rwrist 8.23764
rhand -12.2156 11.4704
rfingers 7.12502
rthumb 13.8492 -18.0485
lclavicle -4.27387e-015 -3.97569e-015
lhumerus -31.8882 15.8322 81.5514
lradius 21.8679
lwrist -13.6039
lhand -13.3458 28.9449
lfingers 7.12502
lthumb 12.7599 58.535
rfemur -10.9358 -1.90737 21.3791
rtibia 57.8938
rfoot -2.9312 -1.39278
rtoes -3.46894
lfemur -17.9999 0.712282 -21.6624
ltibia 21.3526
lfoot -2.51699 -1.0364
ltoes 1.16405
176
root 13.5994 17.6863 -2.77967 0.737902 -4.69896 2.35434
lowerback 7.48578 0.702838 -2.68845
upperback 0.215943 0.752228 1.15703
thorax -4.02724 0.434589 2.63057
lowerneck -17.6643 -4.29995 -9.69998
upperneck 24.663 -5.23579 7.29767
head 11.4077 -2.39418 3.53195
rclavicle -6.16232e-015 5.1684e-015
rhumerus -28.2935 -14.2965 -80.5811
rradius 30.0555
rwrist 8.57267
rhand -12.3597 11.715
rfingers 7.12502
rthumb 13.7103 -17.8134
lclavicle -6.16232e-015 5.1684e-015
lhumerus -31.6646 15.5426 81.5742
lradius 21.891
lwrist -14.0463
lhand -13.2052 28.1033
lfingers 7.12502
lthumb 12.8954 57.6849
rfemur -12.2428 -2.29918 21.0076
rtibia 59.3653
rfoot -3.33258 -2.78421
rtoes -2.68566
lfemur -17.4889 0.640136 -21.9279
ltibia 21.1674
lfoot -2.77597 -0.739031
ltoes 1.6476
177
root 13.6041 17.697 -2.66977 0.680121 -4.9579 2.50869
lowerback 7.56886 0.697161 -2.84123
upperback 0.111698 0.727761 1.13289
thorax -4.18251 0.428997 2.69366
lowerneck -17.3853 -4.24191 -9.65455
upperneck 24.6381 -5.17253 7.22163
head 11.333 -2.37649 3.50713
rclavicle 3.97569e-015 -1.90833e-014
rhumerus -28.8339 -14.2813 -80.444
rradius 29.9511
rwrist 8.70187
rhand -12.3148 11.7816
rfingers 7.12502
rthumb 13.7536 -17.7439
lclavicle 3.97569e-015 -1.90833e-014
lhumerus -31.5738 15.3199 81.5483
lradius 21.8521
lwrist -14.2093
lhand -13.5203 26.1782
lfingers 7.12502
lthumb 12.5916 55.7787
rfemur -13.3967 -2.66908 20.7104
rtibia 60.5734
rfoot -3.95524 -4.18314
rtoes 0.968911
lfemur -16.9125 0.989494 -22.1748
ltibia 21.0482
lfoot -3.3763 -0.708988
ltoes 1.64235
178
root 13.6036 17.7044 -2.56847 0.570924 -5.01987 2.50944
lowerback 7.76272 0.614309 -2.90644
upperback 0.119388 0.607955 1.16919
thorax -4.27643 0.372681 2.78097
lowerneck -17.2935 -4.14079 -9.59665
upperneck 24.5585 -5.02316 7.12363
head 11.2651 -2.31694 3.48268
rclavicle 1.15792e-014 -4.77083e-015
rhumerus -28.9782 -14.3427 -80.3765
rradius 29.648
rwrist 9.23456
rhand -12.4036 12.1895
rfingers 7.12502
rthumb 13.668 -17.3417
lclavicle 1.15792e-014 -4.77083e-015
lhumerus -31.0821 15.7118 81.368
lradius 21.5148
lwrist -14.7096
lhand -14.4237 22.7976
lfingers 7.12502
lthumb 11.7206 52.4497
rfemur -14.4298 -3.23553 20.6114
rtibia 61.5706
rfoot -4.41416 -5.39541
rtoes 3.83108
lfemur -16.324 1.24287 -22.228
ltibia 20.9825
lfoot -3.87518 -0.92417
ltoes 1.52326
179
root 13.5999 17.7153 -2.46782 0.562237 -5.08802 2.42641
lowerback 7.79315 0.522104 -2.89586
upperback 0.205572 0.486704 1.19251
thorax -4.19529 0.310033 2.81312
lowerneck -17.0115 -4.16215 -9.59825
upperneck 24.2344 -5.05607 7.09399
head 11.0905 -2.33924 3.46187
rclavicle -5.36719e-015 1.35174e-014
rhumerus -28.9497 -14.4526 -80.4475
rradius 29.4867
rwrist 9.67849
rhand -12.7074 13.5643
rfingers 7.12502
rthumb 13.3753 -15.9864
lclavicle -5.36719e-015 1.35174e-014
lhumerus -30.6299 15.8697 81.2441
lradius 21.6195
lwrist -14.7808
lhand -14.2009 25.2906
lfingers 7.12502
lthumb 11.9354 54.9304
rfemur -15.534 -3.7785 20.6373
rtibia 62.3669
rfoot -4.85316 -6.55775
rtoes 4.80271
lfemur -15.9201 1.37644 -22.1576
ltibia 20.9743
lfoot -4.12514 -1.05982
ltoes 0.873285
180
root 13.5968 17.7217 -2.36447 0.645063 -5.30823 2.55015
lowerback 7.73453 0.511883 -3.06636
upperback 0.197957 0.458039 1.15923
thorax -4.16949 0.298554 2.87811
lowerneck -16.8866 -4.25822 -9.72003
upperneck 24.139 -5.19004 7.18214
head 11.0502 -2.40301 3.49372
rclavicle -4.42296e-015 -1.98785e-015
rhumerus -29.2534 -14.5312 -80.4227
rradius 29.6278
rwrist 9.61924
rhand -12.5686 12.1594
rfingers 7.12502
rthumb 13.509 -17.3824
lclavicle -4.42296e-015 -1.98785e-015
lhumerus -30.4894 15.6307 81.301
lradius 22.0568
lwrist -14.5497
lhand -13.8156 25.7381
lfingers 7.12502
lthumb 12.3069 55.356
rfemur -16.7526 -4.21429 20.4343
rtibia 63.009
rfoot -5.30328 -7.53841
rtoes 5.16731
lfemur -15.6548 1.39476 -22.2926
ltibia 21.0708
lfoot -4.42183 -0.756331
ltoes 0.0172118
181
root 13.5991 17.7267 -2.26449 0.678327 -5.41066 2.70556
lowerback 7.77943 0.460253 -3.20099
upperback 0.145075 0.374751 1.14135
thorax -4.24461 0.261909 2.94499
lowerneck -16.8383 -4.27797 -9.76626
upperneck 24.1357 -5.20628 7.16762
head 11.0424 -2.41768 3.49392
rclavicle -3.62782e-015 3.18055e-015
rhumerus -29.6172 -14.724 -80.2192
rradius 29.6083
rwrist 9.94858
rhand -12.6266 12.2842
rfingers 7.12502
rthumb 13.4531 -17.2613
lclavicle -3.62782e-015 3.18055e-015
lhumerus -30.3186 15.6389 81.3113
lradius 22.354
lwrist -14.5752
lhand -14.2764 24.999
lfingers 7.12502
lthumb 11.8626 54.643
rfemur -17.8779 -4.71645 20.189
rtibia 63.4815
rfoot -5.51723 -8.34392
rtoes 6.71467
lfemur -15.3783 0.981164 -22.4605
ltibia 21.2281
lfoot -4.92977 -0.00966314
ltoes -0.64227
182
root 13.5983 17.7276 -2.16739 0.752793 -5.4827 2.50372
lowerback 7.83356 0.362382 -3.06793
upperback 0.104996 0.260615 1.28067
thorax -4.30823 0.205768 3.02833
lowerneck -16.4629 -4.22925 -9.91563
upperneck 23.8977 -5.13113 7.20907
head 10.8788 -2.39848 3.54404
rclavicle -3.62782e-015 -7.95139e-016
rhumerus -29.9334 -14.9697 -79.939
rradius 29.4999
rwrist 10.6439
rhand -12.991 12.4447
rfingers 7.12502
rthumb 13.1018 -17.1238
lclavicle -3.62782e-015 -7.95139e-016
lhumerus -29.9557 15.7167 81.3332
lradius 22.4196
lwrist -14.5048
lhand -14.4543 25.4745
lfingers 7.12502
lthumb 11.691 55.1283
rfemur -18.963 -5.15682 20.4249
rtibia 63.796
rfoot -5.71002 -9.013
rtoes 7.61619
lfemur -15.1842 0.484588 -22.2192
ltibia 21.4755
lfoot -5.31642 0.667105
ltoes -0.110522
